<mxfile host="app.diagrams.net" modified="2023-10-24T07:55:32.802Z" agent="Mozilla/5.0 (Windows NT 10.0; Win64; x64) AppleWebKit/537.36 (KHTML, like Gecko) Chrome/118.0.0.0 Safari/537.36 Edg/118.0.2088.61" version="22.0.6" etag="LpDAPgF1ZWH4N0a26TVY" type="github">
  <diagram name="第 1 页" id="9H0jW8BZd4IEM1iV0Gm9">
    <mxGraphModel>
      <root>
        <mxCell id="0" />
        <mxCell id="1" parent="0" />
      </root>
    </mxGraphModel>
  </diagram>
</mxfile>
